<?xml version="1.0" encoding="UTF-8"?>
<svg id="Layer_4" data-name="Layer 4" xmlns="http://www.w3.org/2000/svg" viewBox="0 0 338 564.62">
  <defs>
    <style>
      .cls-1 {
        fill: #fc9298;
      }

      .cls-2 {
        fill: #fac1ac;
        font-family: Fabiola-Script, Fabiola;
        font-size: 195.65px;
      }

      .cls-3 {
        fill: #4e444b;
      }
    </style>
  </defs>
  <g>
    <path class="cls-3" d="M56.96,5.09c-.18.03-.36.07-.55.11-4.97.91-15.25,1.87-21.16,4.14-6.14,2.36-16.99,6.14-18.41,7.55-1.42,1.42-10.38,3.3-1.89,3.78,8.5.47,286.95,32.09,286.95,37.28s-4.72,464.87-6.14,464.87S24.86,466.66,24.86,466.66c0,0-15.57-.47-15.57-2.83S-2.04,24.44.32,21.61c2.36-2.83,11.56-11.33,13.21-12.03S40.68.02,41.86.02s14.51-.24,15.69.94,2.01,1.42,3.89,1.53,276.27,33.45,276.5,34.28-.31,37.76-.31,38.76-.55,35.75-.6,36.79-1,56.59-1,57.17-2.21,109-2.17,109.66-3.27,179.3-3.27,179.81-.58,30.53-.58,30.53c-.8.58-2.7,1.11-3.76.94s-3.32.62-3.32-.18,8.39-449.53,8.04-449.77S113.83,12.93,110.11,12.58s-52.2-7.66-53.15-7.48Z"/>
    <path class="cls-1" d="M56.96,5.09c-.93.17-48.09,13.89-45.6,14.69s244.32,29.85,245.58,30.03,39.58,6.29,41.26,6.73,4.15-.44,4.15,1.15-6.79,453.76-6.09,452.94,1.05-3.3,1.7-4.01,6.19-5.78,7.26-6.55,1.95-.88,2.77-1.59,6.83-4.94,7.24-4.97.97.09,1.15-.35-.15-1.09.62-1.33,3.16-.03,4.13-.32,1.9-.31,1.87-.52-.07-.61-.07-.83.59-31.02.6-31.67,1.21-65.22,1.22-65.9.75-40.7.76-41.35,1.7-92.68,1.71-93.24,1.22-67.23,1.23-67.89,1.34-75.2,1.36-76.17c.02-.97,1.35-73.42,1.16-73.45s-27.4-3.55-28.13-3.65-45.79-5.81-47.53-6.03S71.38,7.03,70.6,6.91s-13.65-1.82-13.65-1.82Z"/>
  </g>
  <text class="cls-2" transform="translate(103.37 400.27)"><tspan x="0" y="0">C</tspan></text>
  <text class="cls-2" transform="translate(45.4 252.15)"><tspan x="0" y="0">T</tspan></text>
</svg>